<svg xmlns="http://www.w3.org/2000/svg" width="200" height="150" viewBox="0 0 200 150">
  <!-- Background -->
  <rect width="200" height="150" fill="#f5f5f5"/>
  
  <!-- Post image content -->
  <rect x="20" y="20" width="160" height="110" fill="#003b7a" rx="5" ry="5"/>
  
  <!-- Trophy icon -->
  <path d="M100,40 L120,40 L120,50 Q130,50 130,60 Q130,70 120,70 L120,80 L110,90 L90,90 L80,80 L80,70 Q70,70 70,60 Q70,50 80,50 L80,40 Z" fill="gold"/>
  <rect x="90" y="90" width="20" height="10" fill="gold"/>
  <rect x="85" y="100" width="30" height="5" fill="gold"/>
  
  <!-- Post title -->
  <rect x="30" y="110" width="140" height="15" fill="white" rx="2" ry="2" opacity="0.9"/>
  <text x="100" y="122" font-family="Arial" font-size="10" font-weight="bold" text-anchor="middle" fill="#003b7a">IPL 2023 FINAL RECAP</text>
</svg>